<svg xmlns="http://www.w3.org/2000/svg" viewBox="0 0 600 600" fill="none" shape-rendering="auto"><metadata xmlns:rdf="http://www.w3.org/1999/02/22-rdf-syntax-ns#" xmlns:xsi="http://www.w3.org/2001/XMLSchema-instance" xmlns:dc="http://purl.org/dc/elements/1.1/" xmlns:dcterms="http://purl.org/dc/terms/"><rdf:RDF><rdf:Description><dc:title>avatar_test</dc:title><dc:creator>byd</dc:creator><dcterms:license xsi:type="dcterms:URI">https://creativecommons.org/licenses/by/4.0/</dcterms:license><dc:rights>Remix of „avatar_test” by „byd”, licensed under „CC BY 4.0” (https://creativecommons.org/licenses/by/4.0/)</dc:rights></rdf:Description></rdf:RDF></metadata><mask id="viewboxMask"><rect width="600" height="600" rx="0" ry="0" x="0" y="0" fill="#fff" /></mask><g mask="url(#viewboxMask)"><rect width="600" height="600" transform="translate(.7)" fill="#CB5574"/><g transform="translate(1.3)"><path d="M460.7 277h-23.1v23h23zm69.2 300h-23v23h23zm0-23.2h-23V577h23z" fill="#3D2018"/><path d="M506.8 577h-23v23h23zm0-23.2h-23V577h23z" fill="#BE6E2A"/><path d="M506.8 530.8h-23v23h23zm0-23.1h-23v23h23z" fill="#3D2018"/><path d="M483.7 577h-23v23h23zm0-23.2h-23V577h23z" fill="#E69A4C"/><path d="M483.7 530.8h-23v23h23zm0-23.1h-23v23h23z" fill="#BE6E2A"/><path d="M483.7 484.6h-23v23h23z" fill="#3D2018"/><path d="M460.7 577h-23.1v23h23zm0-23.2h-23.1V577h23zm0-23h-23.1v23h23zm0-23.1h-23.1v23h23z" fill="#E69A4C"/><path d="M460.7 484.6h-23.1v23h23z" fill="#BE6E2A"/><path d="M460.7 461.5h-23.1v23.1h23zm0-46.1h-23.1v23h23zm0-23.1h-23.1v23h23zm0-23.1h-23.1v23.1h23zm0-23h-23.1v23h23zm0-23.2h-23.1v23.1h23zm0-23h-23.1v23h23zm0-46.2h-23.1V277h23zm0-23h-23.1v23h23z" fill="#3D2018"/><path d="M437.6 577h-23.1v23h23zm0-23.2h-23.1V577h23z" fill="#BE6E2A"/><path d="M437.6 530.8h-23.1v23h23zm0-23.1h-23.1v23h23zm0-23.1h-23.1v23h23z" fill="#E69A4C"/><path d="M437.6 461.5h-23.1v23.1h23z" fill="#BE6E2A"/><path d="M437.6 438.5h-23.1v23h23z" fill="#3D2018"/><path d="M437.6 415.4h-23.1v23h23zm0-23.1h-23.1v23h23zm0-23.1h-23.1v23.1h23zm0-23h-23.1v23h23zm0-23.2h-23.1v23.1h23zm0-23h-23.1v23h23zm0-23h-23.1v23h23zm0-23.2h-23.1V277h23z" fill="#BE6E2A"/><path d="M437.6 230.8h-23.1v23h23z" fill="#3D2018"/><path d="M414.5 577h-23v23h23zm0-23.2h-23V577h23zm0-23h-23v23h23zm0-23.1h-23v23h23zm0-23.1h-23v23h23z" fill="#E69A4C"/><path d="M414.5 461.5h-23v23.1h23zm0-23h-23v23h23z" fill="#BE6E2A"/><path d="M414.5 415.4h-23v23h23zm0-23.1h-23v23h23zm0-23.1h-23v23.1h23zm0-23h-23v23h23zm0-23.2h-23v23.1h23zm0-23h-23v23h23zm0-23h-23v23h23zm0-23.2h-23V277h23z" fill="#E69A4C"/><path d="M414.5 230.8h-23v23h23z" fill="#BE6E2A"/><path d="M414.5 207.7h-23v23h23z" fill="#3D2018"/><path d="M391.4 577h-23v23h23zm0-23.2h-23V577h23zm0-23h-23v23h23zm0-23.1h-23v23h23zm0-23.1h-23v23h23zm0-23.1h-23v23.1h23zm0-23h-23v23h23zm0-23.1h-23v23h23zm0-23.1h-23v23h23zm0-23.1h-23v23.1h23zm0-23h-23v23h23zm0-23.2h-23v23.1h23zm0-23h-23v23h23zm0-23h-23v23h23zm0-23.2h-23V277h23zm0-23h-23v23h23z" fill="#E69A4C"/><path d="M391.4 207.7h-23v23h23z" fill="#3D2018"/><path d="M368.3 577h-23v23h23zm0-23.2h-23V577h23zm0-23h-23v23h23zm0-23.1h-23v23h23zm0-23.1h-23v23h23zm0-23.1h-23v23.1h23zm0-23h-23v23h23zm0-23.1h-23v23h23zm0-23.1h-23v23h23zm0-23.1h-23v23.1h23zm0-23h-23v23h23zm0-23.2h-23v23.1h23zm0-23h-23v23h23zm0-23h-23v23h23zm0-23.2h-23V277h23zm0-23h-23v23h23z" fill="#E69A4C"/><path d="M368.3 207.7h-23v23h23z" fill="#3D2018"/><path d="M345.3 577h-23.1v23h23zm0-23.2h-23.1V577h23zm0-23h-23.1v23h23zm0-23.1h-23.1v23h23zm0-23.1h-23.1v23h23zm0-23.1h-23.1v23.1h23zm0-23h-23.1v23h23zm0-23.1h-23.1v23h23zm0-23.1h-23.1v23h23zm0-23.1h-23.1v23.1h23zm0-23h-23.1v23h23zm0-23.2h-23.1v23.1h23zm0-23h-23.1v23h23zm0-23h-23.1v23h23zm0-23.2h-23.1V277h23zm0-23h-23.1v23h23z" fill="#E69A4C"/><path d="M345.3 207.7h-23.1v23h23zm0-23.1h-23.1v23h23zm0-23.1h-23.1v23.1h23z" fill="#3D2018"/><path d="M322.2 577h-23v23h23zm0-23.2h-23V577h23zm0-23h-23v23h23zm0-23.1h-23v23h23zm0-23.1h-23v23h23zm0-23.1h-23v23.1h23zm0-23h-23v23h23zm0-23.1h-23v23h23zm0-23.1h-23v23h23zm0-23.1h-23v23.1h23zm0-23h-23v23h23zm0-23.2h-23v23.1h23zm0-23h-23v23h23zm0-23h-23v23h23zm0-23.2h-23V277h23zm0-23h-23v23h23zm0-23.1h-23v23h23zm0-23.1h-23v23h23zm0-23.1h-23v23.1h23z" fill="#E69A4C"/><path d="M322.2 138.5h-23v23h23z" fill="#3D2018"/><path d="M299.1 577h-23v23h23zm0-23.2h-23V577h23zm0-23h-23v23h23zm0-23.1h-23v23h23zm0-23.1h-23v23h23zm0-23.1h-23v23.1h23zm0-23h-23v23h23zm0-23.1h-23v23h23zm0-23.1h-23v23h23zm0-23.1h-23v23.1h23zm0-23h-23v23h23zm0-23.2h-23v23.1h23zm0-23h-23v23h23zm0-23h-23v23h23zm0-23.2h-23V277h23zm0-23h-23v23h23z" fill="#E69A4C"/><path d="M299.1 207.7h-23v23h23zm0-23.1h-23v23h23z" fill="#BE6E2A"/><path d="M299.1 161.5h-23v23.1h23z" fill="#3D2018"/><path d="M276 577h-23v23h23zm0-23.2h-23V577h23zm0-23h-23v23h23zm0-23.1h-23v23h23zm0-23.1h-23v23h23zm0-23.1h-23v23.1h23zm0-23h-23v23h23zm0-23.1h-23v23h23zm0-23.1h-23v23h23zm0-23.1h-23v23.1h23zm0-23h-23v23h23zm0-23.2h-23v23.1h23zm0-23h-23v23h23zm0-23h-23v23h23zm0-23.2h-23V277h23zm0-23h-23v23h23zm0-23.1h-23v23h23zm0-23.1h-23v23h23zm0-23.1h-23v23.1h23z" fill="#E69A4C"/><path d="M276 138.5h-23v23h23z" fill="#3D2018"/><path d="M253 577h-23.1v23h23zm0-23.2h-23.1V577h23zm0-23h-23.1v23h23zm0-23.1h-23.1v23h23zm0-23.1h-23.1v23h23zm0-23.1h-23.1v23.1h23zm0-23h-23.1v23h23zm0-23.1h-23.1v23h23zm0-23.1h-23.1v23h23zm0-23.1h-23.1v23.1h23zm0-23h-23.1v23h23zm0-23.2h-23.1v23.1h23zm0-23h-23.1v23h23zm0-23h-23.1v23h23zm0-23.2h-23.1V277h23zm0-23h-23.1v23h23z" fill="#E69A4C"/><path d="M253 207.7h-23.1v23h23zm0-23.1h-23.1v23h23zm0-23.1h-23.1v23.1h23z" fill="#3D2018"/><path d="M229.9 577h-23v23h23zm0-23.2h-23V577h23zm0-23h-23v23h23zm0-23.1h-23v23h23zm0-23.1h-23v23h23zm0-23.1h-23v23.1h23zm0-23h-23v23h23zm0-23.1h-23v23h23zm0-23.1h-23v23h23zm0-23.1h-23v23.1h23zm0-23h-23v23h23zm0-23.2h-23v23.1h23zm0-23h-23v23h23zm0-23h-23v23h23zm0-23.2h-23V277h23zm0-23h-23v23h23z" fill="#E69A4C"/><path d="M229.9 207.7h-23v23h23z" fill="#3D2018"/><path d="M206.8 577h-23v23h23zm0-23.2h-23V577h23z" fill="#BE6E2A"/><path d="M206.8 530.8h-23v23h23zm0-23.1h-23v23h23zm0-23.1h-23v23h23z" fill="#E69A4C"/><path d="M206.8 461.5h-23v23.1h23zm0-23h-23v23h23z" fill="#BE6E2A"/><path d="M206.8 415.4h-23v23h23zm0-23.1h-23v23h23zm0-23.1h-23v23.1h23zm0-23h-23v23h23zm0-23.2h-23v23.1h23zm0-23h-23v23h23zm0-23h-23v23h23zm0-23.2h-23V277h23z" fill="#E69A4C"/><path d="M206.8 230.8h-23v23h23zm0-23.1h-23v23h23z" fill="#3D2018"/><path d="M183.7 577h-23v23h23zm0-23.2h-23V577h23zm0-23h-23v23h23zm0-23.1h-23v23h23zm0-23.1h-23v23h23z" fill="#E69A4C"/><path d="M183.7 461.5h-23v23.1h23zm0-23h-23v23h23z" fill="#3D2018"/><path d="M183.7 415.4h-23v23h23zm0-23.1h-23v23h23z" fill="#BE6E2A"/><path d="M183.7 369.2h-23v23.1h23zm0-23h-23v23h23zm0-23.2h-23v23.1h23zm0-23h-23v23h23zm0-23h-23v23h23zm0-23.2h-23V277h23z" fill="#3D2018"/><path d="M160.6 577h-23v23h23zm0-23.2h-23V577h23zm0-23h-23v23h23zm0-23.1h-23v23h23z" fill="#E69A4C"/><path d="M160.6 484.6h-23v23h23zm0-69.2h-23v23h23zm0-23.1h-23v23h23z" fill="#3D2018"/><path d="M137.6 577h-23.1v23h23zm0-23.2h-23.1V577h23z" fill="#E69A4C"/><path d="M137.6 530.8h-23.1v23h23zm0-23.1h-23.1v23h23zM114.5 577h-23v23h23zm0-23.2h-23V577h23z" fill="#3D2018"/></g><path d="M369.6 392h-23v23.2h23z" fill="#ECDBCC"/><path d="M369.6 346h-23v23h23z" fill="#3D2018"/><path d="M369.6 322.9h-23v23h23z" fill="#D3E3E4"/><path d="M369.6 299.8h-23v23h23z" fill="#E69A4C"/><path d="M369.6 276.7h-23v23h23z" fill="#BE6E2A"/><path d="M346.5 415.2h-23v23h23zm0-23.2h-23v23.2h23zm0-23h-23v23h23z" fill="#ECDBCC"/><path d="M346.5 346h-23v23h23zm0-23.1h-23v23h23z" fill="#3D2018"/><path d="M346.5 299.8h-23v23h23z" fill="#E69A4C"/><path d="M346.5 276.7h-23v23h23z" fill="#BE6E2A"/><path d="M323.4 415.2h-23v23h23zm0-23.2h-23v23.2h23zm0-23h-23v23h23zm-23 46.2h-23.1v23h23z" fill="#ECDBCC"/><path d="M300.4 392h-23.1v23.2h23z" fill="#C2615C"/><path d="M300.4 369h-23.1v23h23zm-23.1 46.2h-23v23h23zm0-23.2h-23v23.2h23z" fill="#ECDBCC"/><path d="M277.3 369h-23v23h23zm-23.1 23h-23v23.2h23z" fill="#ECDBCC"/><path d="M254.2 369h-23v23h23z" fill="#C2615C"/><path d="M254.2 346h-23v23h23z" fill="#3D2018"/><path d="M254.2 322.9h-23v23h23z" fill="#ECDBCC"/><path d="M254.2 299.8h-23v23h23z" fill="#E69A4C"/><path d="M254.2 276.7h-23v23h23z" fill="#BE6E2A"/><path d="M231.1 369h-23v23h23z" fill="#C2615C"/><path d="M231.1 346h-23v23h23zm0-23.1h-23v23h23z" fill="#3D2018"/><path d="M231.1 299.8h-23v23h23z" fill="#E69A4C"/><path d="M231.1 276.7h-23v23h23z" fill="#BE6E2A"/><g transform="translate(.3)"><path d="M462.3 276.7h-23v23h23zm0-23.1h-23v23.1h23zm0-23h-23v23h23zm-23 46.1h-23.1v23h23z" fill="#3D2018"/><path d="M439.3 253.6h-23.1v23.1h23zm0-23h-23.1v23h23z" fill="#683022"/><path d="M439.3 207.5h-23.1v23h23z" fill="#3D2018"/><path d="M416.2 276.7H393v23h23z" fill="#BE6E2A"/><path d="M416.2 253.6H393v23.1h23z" fill="#3D2018"/><path d="M416.2 230.6H393v23h23z" fill="#683022"/><path d="M416.2 207.5H393v23h23z" fill="#3D2018"/><path d="M393 276.7h-23v23h23zm0-23.1h-23v23.1h23zm0-23h-23v23h23zm0-23.1h-23v23h23zm-23 69.2h-23v23h23z" fill="#7D6C2A"/><path d="M370 253.6h-23v23.1h23z" fill="#E67E24"/><path d="M370 230.6h-23v23h23z" fill="#DF5820"/><path d="M370 207.5h-23v23h23zm-23 69.2h-23.1v23h23z" fill="#7D6C2A"/><path d="M347 253.6h-23.1v23.1h23z" fill="#E67E24"/><path d="M347 230.6h-23.1v23h23z" fill="#DF5820"/><path d="M347 207.5h-23.1v23h23zm-23.1 69.2h-23.1v23h23zm0-23.1h-23.1v23.1h23zm0-23h-23.1v23h23zm0-23.1h-23.1v23h23z" fill="#7D6C2A"/><path d="M300.8 276.7h-23v23h23z" fill="#BE6E2A"/><path d="M300.8 253.6h-23v23.1h23z" fill="#3D2018"/><path d="M300.8 230.6h-23v23h23z" fill="#683022"/><path d="M300.8 207.5h-23v23h23z" fill="#3D2018"/><path d="M277.7 276.7h-23v23h23zm0-23.1h-23v23.1h23zm0-23h-23v23h23zm0-23.1h-23v23h23zm-23.1 69.2h-23v23h23z" fill="#7D6C2A"/><path d="M254.6 253.6h-23v23.1h23z" fill="#E67E24"/><path d="M254.6 230.6h-23v23h23z" fill="#DF5820"/><path d="M254.6 207.5h-23v23h23zm-23 69.2h-23.1v23h23z" fill="#7D6C2A"/><path d="M231.6 253.6h-23.1v23.1h23z" fill="#E67E24"/><path d="M231.6 230.6h-23.1v23h23z" fill="#DF5820"/><path d="M231.6 207.5h-23.1v23h23zm-23.1 69.2h-23.1v23h23zm0-23.1h-23.1v23.1h23zm0-23h-23.1v23h23zm0-23.1h-23.1v23h23z" fill="#7D6C2A"/><path d="M185.4 276.7h-23v23h23zm0-23.1h-23v23.1h23zm0-23h-23v23h23z" fill="#3D2018"/></g><g transform="translate(.3)"><path d="M438.8 577h-23v23h23zm0-23.2h-23V577h23z" fill="#BE6E2A"/><path d="M438.8 530.8h-23v23h23zm0-23.1h-23v23h23zm0-23.1h-23v23h23zm0-23.1h-23v23.1h23zm0-23h-23v23h23zM415.7 577h-23v23h23zm0-23.2h-23V577h23z" fill="#3D2018"/><path d="M415.7 530.8h-23v23h23zm0-23.1h-23v23h23zm0-23.1h-23v23h23z" fill="#683022"/><path d="M415.7 461.5h-23v23.1h23z" fill="#3D2018"/><path d="M415.7 438.5h-23v23h23z" fill="#BE6E2A"/><path d="M392.6 577h-23v23h23z" fill="#683022"/><path d="M392.6 553.8h-23V577h23z" fill="#988A45"/><path d="M392.6 530.8h-23v23h23z" fill="#683022"/><path d="M392.6 507.7h-23v23h23zm0-23.1h-23v23h23z" fill="#3D2018"/><path d="M392.6 461.5h-23v23.1h23z" fill="#BE6E2A"/><path d="M369.6 577h-23.1v23h23zm0-23.2h-23.1V577h23zm0-23h-23.1v23h23z" fill="#3D2018"/><path d="M369.6 507.7h-23.1v23h23zm0-23.1h-23.1v23h23z" fill="#BE6E2A"/><path d="M346.5 577h-23v23h23zm0-23.2h-23V577h23z" fill="#683022"/><path d="M346.5 530.8h-23v23h23z" fill="#3D2018"/><path d="M346.5 507.7h-23v23h23z" fill="#BE6E2A"/><path d="M323.4 577h-23v23h23zm0-23.2h-23V577h23z" fill="#683022"/><path d="M323.4 530.8h-23v23h23z" fill="#3D2018"/><path d="M323.4 507.7h-23v23h23z" fill="#BE6E2A"/><path d="M300.3 577h-23v23h23zm0-23.2h-23V577h23z" fill="#683022"/><path d="M300.3 530.8h-23v23h23z" fill="#3D2018"/><path d="M300.3 507.7h-23v23h23z" fill="#BE6E2A"/><path d="M277.3 577h-23.1v23h23zm0-23.2h-23.1V577h23z" fill="#683022"/><path d="M277.3 530.8h-23.1v23h23z" fill="#3D2018"/><path d="M277.3 507.7h-23.1v23h23z" fill="#BE6E2A"/><path d="M254.2 577h-23v23h23zm0-23.2h-23V577h23zm0-23h-23v23h23z" fill="#3D2018"/><path d="M254.2 507.7h-23v23h23zm0-23.1h-23v23h23z" fill="#BE6E2A"/><path d="M231.1 577h-23v23h23z" fill="#683022"/><path d="M231.1 553.8h-23V577h23z" fill="#988A45"/><path d="M231.1 530.8h-23v23h23z" fill="#683022"/><path d="M231.1 507.7h-23v23h23zm0-23.1h-23v23h23z" fill="#3D2018"/><path d="M231.1 461.5h-23v23.1h23z" fill="#BE6E2A"/><path d="M208 577h-23v23h23zm0-23.2h-23V577h23z" fill="#3D2018"/><path d="M208 530.8h-23v23h23zm0-23.1h-23v23h23zm0-23.1h-23v23h23z" fill="#683022"/><path d="M208 461.5h-23v23.1h23z" fill="#3D2018"/><path d="M208 438.5h-23v23h23zM185 577h-23.1v23h23zm0-23.2h-23.1V577h23z" fill="#BE6E2A"/><path d="M185 530.8h-23.1v23h23zm0-23.1h-23.1v23h23zm0-23.1h-23.1v23h23zm0-23.1h-23.1v23.1h23zm0-23h-23.1v23h23z" fill="#3D2018"/></g><g transform="translate(-.3)"><path d="M162.5 415.2h-23v23h23zm23.1 23.1h-23v23h23zm69.2 23h-23v23.1h23z" fill="#C43385"/><path opacity="0.77" d="M277.9 415.2h-23v23h23z" fill="#F1A4B7"/><path d="M301 415.2h-23.1v23h23zm0-23.1h-23.1v23h23zm0-23.1h-23.1v23.1h23zm-23.1 69.3h-23v23h23z" fill="#C43385"/><path opacity="0.77" d="M277.9 392.1h-23v23h23zm0-23.1h-23v23.1h23z" fill="#F1A4B7"/><path d="M277.9 346h-23v23h23z" fill="#C43385"/><path opacity="0.77" d="M254.8 438.3h-23v23h23zm0-23.1h-23v23h23zm0-23.1h-23v23h23zm0-23.1h-23v23.1h23zm0-23h-23v23h23z" fill="#F1A4B7"/><path d="M254.8 322.9h-23v23h23zm-23.1 138.4h-23v23.1h23z" fill="#C43385"/><path opacity="0.77" d="M231.7 438.3h-23v23h23zm0-23.1h-23v23h23zm0-23.1h-23v23h23zm0-23.1h-23v23.1h23zm0-23h-23v23h23z" fill="#F1A4B7"/><path d="M231.7 322.9h-23v23h23zm-23 138.4h-23.1v23.1h23z" fill="#C43385"/><path opacity="0.77" d="M208.7 438.3h-23.1v23h23zm0-23.1h-23.1v23h23zm0-23.1h-23.1v23h23zm0-23.1h-23.1v23.1h23z" fill="#F1A4B7"/><path d="M208.7 346h-23.1v23h23z" fill="#ECDBCC"/><path d="M208.7 322.9h-23.1v23h23z" fill="#C43385"/><path opacity="0.77" d="M185.6 415.2h-23v23h23zm0-23.1h-23v23h23z" fill="#F1A4B7"/><path d="M185.6 369h-23v23.1h23z" fill="#ECDBCC"/><path d="M185.6 346h-23v23h23zm-23.1 46.1h-23v23h23zm0-23.1h-23v23.1h23z" fill="#C43385"/></g></g></svg>